{"title":"Shadowheart-AC3-5,1-DVDRip[Eng]2009","uid":5050326,"size":1464099391,"categoryP":"video","categoryS":"movies","magnet":"?xt=urn:btih:ebcb80cea66c791ff08c5a973b5ef56480e9048e&amp;dn=Shadowheart-AC3-5%2C1-DVDRip%5BEng%5D2009&amp;tr=udp%3A%2F%2Ftracker.openbittorrent.com%3A80&amp;tr=udp%3A%2F%2Fopen.demonii.com%3A1337&amp;tr=udp%3A%2F%2Ftracker.coppersurfer.tk%3A6969&amp;tr=udp%3A%2F%2Fexodus.desync.com%3A6969","seeders":0,"leechers":1,"uploader":"FatFreddy31","files":-1,"time":1250164126,"description":" &lt;a href=&quot;http://www.imdb.com/title/tt1053918/&quot; rel=&quot;nofollow&quot; target=&quot;_NEW&quot;&gt;http://www.imdb.com/title/tt1053918/&lt;/a&gt;\n &lt;a href=&quot;\nhttp://www.shadowheartmovie.com/&quot; rel=&quot;nofollow&quot; target=&quot;_NEW&quot;&gt;\nhttp://www.shadowheartmovie.com/&lt;/a&gt;\n\nUser Rating:4.5/10 - 28 votes\n\nDrama,Western\n\nDirector:Dean Alioto\n\nCast:Angus Macfadyen/Justin Ament/Marnie Alton/Tonantzin Carmelo, and others.\n\nPlot:\nJames Conners comes home to the town of Legend, New Mexico in 1865 to avenge his fathers death against the ruthless Will Tunney. Along the way he re-captures his long lost love Mary Cooper. With the chance to take Will Tunney he must choose revenge or redemption...\n\nInfo:\n\nGeneral\nComplete name                    : Shadowheart-AC3-5,1-DVDRip[Eng]2009.avi\nFormat                           : AVI\nFormat/Info                      : Audio Video Interleave\nFile size                        : 1.36 GiB\nDuration                         : 1h 54mn\nOverall bit rate                 : 1 710 Kbps\nWriting application              : VirtualDubMod 1.5.4.1 (build 2178/release)\nWriting library                  : VirtualDubMod build 2178/release\n\nVideo\nFormat                           : MPEG-4 Visual\nFormat profile                   : Simple@L3\nFormat settings, BVOP            : No\nFormat settings, QPel            : No\nFormat settings, GMC             : No warppoints\nFormat settings, Matrix          : Default\nCodec ID                         : XVID\nCodec ID/Hint                    : XviD\nDuration                         : 1h 54mn\nBit rate                         : 1 253 Kbps\nWidth                            : 624 pixels\nHeight                           : 336 pixels\nDisplay aspect ratio             : 1.857\nFrame rate                       : 23.976 fps\nResolution                       : 24 bits\nColorimetry                      : 4:2:0\nScan type                        : Progressive\nBits/(Pixel*Frame)               : 0.249\nStream size                      : 1 023 MiB (73%)\nWriting library                  : XviD 1.1.2 (UTC 2006-11-01)\n\nAudio\nFormat                           : AC-3\nFormat/Info                      : Audio Coding 3\nCodec ID                         : 2000\nDuration                         : 1h 54mn\nBit rate mode                    : Constant\nBit rate                         : 448 Kbps\nChannel(s)                       : 6 channels\nChannel positions                : Front: L C R, Surround: L R, LFE\nSampling rate                    : 48.0 KHz\nStream size                      : 366 MiB (26%)\nAlignment                        : Split accross interleaves\nInterleave, duration             : 42 ms (1.00 video frame)\nInterleave, preload duration     : 500 ms\n\nEnjoy.....","torrent":{"xt":"urn:btih:ebcb80cea66c791ff08c5a973b5ef56480e9048e","amp;dn":"Shadowheart-AC3-5%2C1-DVDRip%5BEng%5D2009","amp;tr":["udp%3A%2F%2Ftracker.openbittorrent.com%3A80","udp%3A%2F%2Fopen.demonii.com%3A1337","udp%3A%2F%2Ftracker.coppersurfer.tk%3A6969","udp%3A%2F%2Fexodus.desync.com%3A6969"],"infoHash":"ebcb80cea66c791ff08c5a973b5ef56480e9048e","infoHashBuffer":{"type":"Buffer","data":[235,203,128,206,166,108,121,31,240,140,90,151,59,94,245,100,128,233,4,142]},"announce":[],"urlList":[]}}